<svg id="Gradient" height="512" viewBox="0 0 512 512" width="512" xmlns="http://www.w3.org/2000/svg" xmlns:xlink="http://www.w3.org/1999/xlink"><linearGradient id="linear-gradient" gradientUnits="userSpaceOnUse" x1="256" x2="256" y1="496" y2="16"><stop offset="0" stop-color="#12c2e9"/><stop offset=".5" stop-color="#c471ed"/><stop offset="1" stop-color="#f64f59"/></linearGradient><path d="m349.657 18.343a8 8 0 0 0 -5.657-2.343h-224a56.064 56.064 0 0 0 -56 56v368a56.064 56.064 0 0 0 56 56h272a56.064 56.064 0 0 0 56-56v-320a8 8 0 0 0 -2.343-5.657zm2.343 24.97 68.687 68.687h-28.687a40.045 40.045 0 0 1 -40-40zm-232-11.313h216v40a56.064 56.064 0 0 0 56 56h40v224h-352v-280a40.045 40.045 0 0 1 40-40zm272 448h-272a40.045 40.045 0 0 1 -40-40v-72h352v72a40.045 40.045 0 0 1 -40 40zm-48-88a8 8 0 0 1 -8 8h-24v16h8a8 8 0 0 1 0 16h-8v24a8 8 0 0 1 -16 0v-64a8 8 0 0 1 8-8h32a8 8 0 0 1 8 8zm-152-8h-16a8 8 0 0 0 -8 8v64a8 8 0 0 0 16 0v-24h8a24 24 0 0 0 0-48zm0 32h-8v-16h8a8 8 0 0 1 0 16zm48-32a8 8 0 0 0 -8 8v64a8 8 0 0 0 8 8 40 40 0 0 0 0-80zm8 62.629v-45.258a24 24 0 0 1 0 45.258zm-8-278.629a8 8 0 0 1 8-8h128a8 8 0 0 1 0 16h-128a8 8 0 0 1 -8-8zm0 32a8 8 0 0 1 8-8h32a8 8 0 0 1 0 16h-32a8 8 0 0 1 -8-8zm0 32a8 8 0 0 1 8-8h128a8 8 0 0 1 0 16h-128a8 8 0 0 1 -8-8zm-112 32a8 8 0 0 1 8-8h184a8 8 0 0 1 0 16h-184a8 8 0 0 1 -8-8zm256-64a8 8 0 0 1 -8 8h-64a8 8 0 0 1 0-16h64a8 8 0 0 1 8 8zm0 64a8 8 0 0 1 -8 8h-24a8 8 0 0 1 0-16h24a8 8 0 0 1 8 8zm-256 32a8 8 0 0 1 8-8h48a8 8 0 0 1 0 16h-48a8 8 0 0 1 -8-8zm176 0a8 8 0 0 1 -8 8h-80a8 8 0 0 1 0-16h80a8 8 0 0 1 8 8zm80 0a8 8 0 0 1 -8 8h-48a8 8 0 0 1 0-16h48a8 8 0 0 1 8 8zm-248-56h80a8 8 0 0 0 8-8v-96a8 8 0 0 0 -8-8h-80a8 8 0 0 0 -8 8v96a8 8 0 0 0 8 8zm8-96h64v80h-64zm96-8a8 8 0 0 1 8-8h64a8 8 0 0 1 0 16h-64a8 8 0 0 1 -8-8z" fill="url(#linear-gradient)"/></svg>